<?xml version="1.0" standalone="no"?>
<!DOCTYPE svg PUBLIC "-//W3C//DTD SVG 20010904//EN"
 "http://www.w3.org/TR/2001/REC-SVG-20010904/DTD/svg10.dtd">
<svg version="1.0" xmlns="http://www.w3.org/2000/svg"
 width="512.000000pt" height="512.000000pt" viewBox="0 0 512.000000 512.000000"
 preserveAspectRatio="xMidYMid meet">
<metadata>
Created by potrace 1.16, written by Peter Selinger 2001-2019
</metadata>
<g transform="translate(0.000000,512.000000) scale(0.100000,-0.100000)"
fill="#000000" stroke="none">
<path d="M3200 4545 c0 -72 -17 -111 -70 -159 -87 -78 -194 -113 -626 -201
-329 -68 -379 -81 -540 -145 -160 -63 -252 -114 -373 -206 -278 -209 -462
-486 -516 -778 -12 -64 -45 -380 -45 -433 0 -8 -36 -12 -114 -15 -127 -3 -149
-12 -193 -78 -23 -33 -23 -34 -23 -454 0 -479 -1 -470 80 -513 40 -22 55 -23
228 -23 216 0 251 10 290 79 22 38 22 46 22 456 0 408 0 418 -21 455 -12 21
-19 45 -16 53 3 8 38 30 79 49 192 92 449 154 803 195 235 27 876 25 1117 -5
312 -38 553 -95 725 -172 83 -37 96 -63 59 -113 -21 -28 -21 -37 -24 -440 -2
-277 0 -424 8 -449 10 -34 7 -46 -26 -125 -151 -367 -471 -674 -843 -807 -74
-27 -74 -27 -95 -7 -51 48 -76 51 -398 51 -273 0 -307 -2 -343 -19 -82 -37
-105 -90 -105 -235 0 -129 16 -175 73 -217 l40 -29 329 0 c360 0 361 0 411 60
14 16 28 38 31 48 4 13 39 29 114 54 374 124 697 375 916 710 61 94 145 261
175 349 l18 54 104 5 c118 6 158 22 189 73 19 30 20 53 20 461 0 421 0 429
-22 464 -30 49 -86 72 -179 72 l-76 0 -11 51 c-7 29 -12 132 -12 244 0 566
-151 987 -469 1306 -167 167 -360 287 -584 363 -108 36 -107 36 -107 -29z"/>
<path d="M3256 2310 c-98 -25 -246 -131 -246 -175 0 -39 29 -47 119 -35 118
16 218 -3 264 -51 22 -23 50 -24 71 -3 24 24 19 43 -21 80 -35 32 -82 51 -178
72 l-40 9 60 12 c72 16 142 4 199 -35 46 -32 82 -26 92 13 8 31 -11 50 -90 90
-55 28 -165 39 -230 23z"/>
<path d="M2105 2294 c-69 -35 -98 -84 -98 -161 0 -98 78 -173 178 -173 176 0
241 237 89 326 -48 28 -123 32 -169 8z"/>
</g>
</svg>
